<svg xmlns="http://www.w3.org/2000/svg" width="640" height="236" viewBox="0 0 640 236" role="img" aria-label="GitHub stats for michellemayes: 9-day streak, longest streak 9 days, 1610 contributions in the past year, 19 public repos, 75 stars">
  <!--
    Written in the dark palette. scripts/generate-profile.mjs derives
    assets/stats-light.svg by mapping each hex (LIGHT_THEME), so every color
    added here needs a light value there.
    Placeholders ({{...}}) are string-substituted by the generator.
    No <script>, no external refs: GitHub's camo <img> proxy strips them.
    Motion is CSS-only and collapses to the static state under reduced motion.
  -->
  <style>
    .mono  { font-family: ui-monospace, "SFMono-Regular", "JetBrains Mono", Menlo, Consolas, monospace; }
    .sans  { font-family: -apple-system, BlinkMacSystemFont, "Segoe UI", Inter, Helvetica, Arial, sans-serif; }
    .num   { font-variant-numeric: tabular-nums; }

    /* Wordmark gradient cycles through the site's accent hues. */
    .wstop { animation: hue-cycle 8s linear infinite; }
    @keyframes hue-cycle {
      0%   { stop-color: #a78bfa; } /* violet */
      25%  { stop-color: #f472b6; } /* rose   */
      50%  { stop-color: #f59e0b; } /* amber  */
      75%  { stop-color: #4ade80; } /* leaf   */
      100% { stop-color: #a78bfa; } /* → violet */
    }

    /* Weekly bars rise once on load, left to right (delay set per bar). */
    .bar     { fill: #7c6aa6; transform-box: fill-box; transform-origin: 50% 100%;
               animation: bar-rise 0.7s cubic-bezier(0.2, 0.7, 0.2, 1) both; }
    .bar-now { fill: #f59e0b; }
    @keyframes bar-rise { from { transform: scaleY(0); } to { transform: scaleY(1); } }

    /* Status dot breathes. */
    .pulse { animation: pulse 2.4s ease-in-out infinite; }
    @keyframes pulse { 0%, 100% { opacity: 1; } 50% { opacity: 0.35; } }

    @media (prefers-reduced-motion: reduce) {
      .wstop, .bar, .pulse { animation: none; }
    }

    .wordmark   { fill: url(#hues); font-size: 15px; font-weight: 700; letter-spacing: 0.4px; }
    .meta       { fill: #cfc8dc; font-size: 11px; }
    .hero       { fill: url(#violet); font-size: 56px; font-weight: 700; }
    .hero-label { fill: #cfc8dc; font-size: 13px; }
    .stat-num   { fill: #ddd6fe; font-size: 22px; font-weight: 600; }
    .stat-label { fill: #cfc8dc; font-size: 11px; letter-spacing: 0.2px; }
    .star       { fill: #f59e0b; }
    .dot        { fill: #4ade80; }
    .rule       { stroke: #a78bfa; stroke-opacity: 0.35; stroke-width: 1; }
    .rule-faint { stroke: #a78bfa; stroke-opacity: 0.18; stroke-width: 1; }
  </style>

  <defs>
    <!-- Negative delays phase-shift the stops so the colors sweep instead of pulsing in unison. -->
    <linearGradient id="hues" x1="0" y1="0" x2="1" y2="0">
      <stop class="wstop" offset="0%"   stop-color="#a78bfa" style="animation-delay: 0s"/>
      <stop class="wstop" offset="50%"  stop-color="#f472b6" style="animation-delay: -2s"/>
      <stop class="wstop" offset="100%" stop-color="#f59e0b" style="animation-delay: -4s"/>
    </linearGradient>
    <linearGradient id="violet" x1="0" y1="0" x2="0" y2="1">
      <stop offset="0%"   stop-color="#c4b5fd"/>
      <stop offset="100%" stop-color="#8b5cf6"/>
    </linearGradient>
  </defs>

  <rect x="0.5" y="0.5" width="639" height="235" rx="12" fill="#1c1726" stroke="#3b3150"/>

  <!-- Header -->
  <circle class="dot pulse" cx="28" cy="29" r="4"/>
  <text class="mono wordmark" x="40" y="34">michellemayes</text>
  <text class="mono meta num" x="616" y="34" text-anchor="end">updated 2026-10-05</text>
  <line class="rule" x1="24" y1="50" x2="616" y2="50"/>

  <!-- Hero: current streak -->
  <text class="sans hero num" x="24" y="118">9</text>
  <text class="mono hero-label" x="26" y="140">day streak · best 9</text>

  <!-- Stat grid -->
  <line class="rule-faint" x1="236" y1="66" x2="236" y2="146"/>

  <text class="sans stat-num num" x="260" y="94">1,610</text>
  <text class="mono stat-label" x="260" y="112">contributions / yr</text>

  <text class="sans stat-num num" x="440" y="94">19</text>
  <text class="mono stat-label" x="440" y="112">public repos</text>

  <text class="sans stat-num num" x="260" y="140"><tspan class="star">★</tspan> 75</text>
  <text class="mono stat-label" x="260" y="158">stars earned</text>

  <text class="sans stat-num num" x="440" y="140">TypeScript</text>
  <text class="mono stat-label" x="440" y="158">most-used language</text>

  <!-- Weekly contributions, past year -->
  <line class="rule-faint" x1="24" y1="172" x2="616" y2="172"/>
  <g transform="translate(24 184)">
    <rect class="bar" x="0.00" y="32.12" width="9.17" height="3.88" rx="1" style="animation-delay: 0ms"/>
    <rect class="bar" x="11.17" y="28.25" width="9.17" height="7.75" rx="1" style="animation-delay: 12ms"/>
    <rect class="bar" x="22.34" y="24.21" width="9.17" height="11.79" rx="1" style="animation-delay: 24ms"/>
    <rect class="bar" x="33.51" y="24.05" width="9.17" height="11.95" rx="1" style="animation-delay: 36ms"/>
    <rect class="bar" x="44.68" y="34.50" width="9.17" height="1.50" rx="1" style="animation-delay: 48ms"/>
    <rect class="bar" x="55.85" y="34.50" width="9.17" height="1.50" rx="1" style="animation-delay: 60ms"/>
    <rect class="bar" x="67.02" y="34.50" width="9.17" height="1.50" rx="1" style="animation-delay: 72ms"/>
    <rect class="bar" x="78.19" y="34.50" width="9.17" height="1.50" rx="1" style="animation-delay: 84ms"/>
    <rect class="bar" x="89.36" y="22.57" width="9.17" height="13.43" rx="1" style="animation-delay: 96ms"/>
    <rect class="bar" x="100.53" y="18.77" width="9.17" height="17.23" rx="1" style="animation-delay: 108ms"/>
    <rect class="bar" x="111.70" y="19.55" width="9.17" height="16.45" rx="1" style="animation-delay: 120ms"/>
    <rect class="bar" x="122.87" y="24.53" width="9.17" height="11.47" rx="1" style="animation-delay: 132ms"/>
    <rect class="bar" x="134.04" y="0.00" width="9.17" height="36.00" rx="1" style="animation-delay: 144ms"/>
    <rect class="bar" x="145.21" y="22.02" width="9.17" height="13.98" rx="1" style="animation-delay: 156ms"/>
    <rect class="bar" x="156.38" y="32.12" width="9.17" height="3.88" rx="1" style="animation-delay: 168ms"/>
    <rect class="bar" x="167.55" y="31.25" width="9.17" height="4.75" rx="1" style="animation-delay: 180ms"/>
    <rect class="bar" x="178.72" y="34.50" width="9.17" height="1.50" rx="1" style="animation-delay: 192ms"/>
    <rect class="bar" x="189.89" y="32.64" width="9.17" height="3.36" rx="1" style="animation-delay: 204ms"/>
    <rect class="bar" x="201.06" y="34.50" width="9.17" height="1.50" rx="1" style="animation-delay: 216ms"/>
    <rect class="bar" x="212.23" y="16.91" width="9.17" height="19.09" rx="1" style="animation-delay: 228ms"/>
    <rect class="bar" x="223.40" y="17.31" width="9.17" height="18.69" rx="1" style="animation-delay: 240ms"/>
    <rect class="bar" x="234.57" y="12.03" width="9.17" height="23.97" rx="1" style="animation-delay: 252ms"/>
    <rect class="bar" x="245.74" y="34.50" width="9.17" height="1.50" rx="1" style="animation-delay: 264ms"/>
    <rect class="bar" x="256.91" y="30.87" width="9.17" height="5.13" rx="1" style="animation-delay: 276ms"/>
    <rect class="bar" x="268.08" y="33.26" width="9.17" height="2.74" rx="1" style="animation-delay: 288ms"/>
    <rect class="bar" x="279.25" y="34.50" width="9.17" height="1.50" rx="1" style="animation-delay: 300ms"/>
    <rect class="bar" x="290.42" y="34.50" width="9.17" height="1.50" rx="1" style="animation-delay: 312ms"/>
    <rect class="bar" x="301.58" y="24.70" width="9.17" height="11.30" rx="1" style="animation-delay: 324ms"/>
    <rect class="bar" x="312.75" y="31.25" width="9.17" height="4.75" rx="1" style="animation-delay: 336ms"/>
    <rect class="bar" x="323.92" y="34.50" width="9.17" height="1.50" rx="1" style="animation-delay: 348ms"/>
    <rect class="bar" x="335.09" y="24.53" width="9.17" height="11.47" rx="1" style="animation-delay: 360ms"/>
    <rect class="bar" x="346.26" y="24.53" width="9.17" height="11.47" rx="1" style="animation-delay: 372ms"/>
    <rect class="bar" x="357.43" y="29.29" width="9.17" height="6.71" rx="1" style="animation-delay: 384ms"/>
    <rect class="bar" x="368.60" y="34.50" width="9.17" height="1.50" rx="1" style="animation-delay: 396ms"/>
    <rect class="bar" x="379.77" y="30.19" width="9.17" height="5.81" rx="1" style="animation-delay: 408ms"/>
    <rect class="bar" x="390.94" y="34.50" width="9.17" height="1.50" rx="1" style="animation-delay: 420ms"/>
    <rect class="bar" x="402.11" y="31.67" width="9.17" height="4.33" rx="1" style="animation-delay: 432ms"/>
    <rect class="bar" x="413.28" y="34.50" width="9.17" height="1.50" rx="1" style="animation-delay: 444ms"/>
    <rect class="bar" x="424.45" y="34.50" width="9.17" height="1.50" rx="1" style="animation-delay: 456ms"/>
    <rect class="bar" x="435.62" y="33.26" width="9.17" height="2.74" rx="1" style="animation-delay: 468ms"/>
    <rect class="bar" x="446.79" y="30.52" width="9.17" height="5.48" rx="1" style="animation-delay: 480ms"/>
    <rect class="bar" x="457.96" y="32.12" width="9.17" height="3.88" rx="1" style="animation-delay: 492ms"/>
    <rect class="bar" x="469.13" y="20.02" width="9.17" height="15.98" rx="1" style="animation-delay: 504ms"/>
    <rect class="bar" x="480.30" y="33.26" width="9.17" height="2.74" rx="1" style="animation-delay: 516ms"/>
    <rect class="bar" x="491.47" y="34.50" width="9.17" height="1.50" rx="1" style="animation-delay: 528ms"/>
    <rect class="bar" x="502.64" y="34.50" width="9.17" height="1.50" rx="1" style="animation-delay: 540ms"/>
    <rect class="bar" x="513.81" y="34.50" width="9.17" height="1.50" rx="1" style="animation-delay: 552ms"/>
    <rect class="bar" x="524.98" y="25.21" width="9.17" height="10.79" rx="1" style="animation-delay: 564ms"/>
    <rect class="bar" x="536.15" y="23.14" width="9.17" height="12.86" rx="1" style="animation-delay: 576ms"/>
    <rect class="bar" x="547.32" y="32.12" width="9.17" height="3.88" rx="1" style="animation-delay: 588ms"/>
    <rect class="bar" x="558.49" y="32.12" width="9.17" height="3.88" rx="1" style="animation-delay: 600ms"/>
    <rect class="bar" x="569.66" y="10.73" width="9.17" height="25.27" rx="1" style="animation-delay: 612ms"/>
    <rect class="bar bar-now" x="580.83" y="22.85" width="9.17" height="13.15" rx="1" style="animation-delay: 624ms"/>
  </g>
</svg>
